<svg aria-hidden="true" style="width:0;height:0;position:absolute;overflow:hidden" xmlns="http://www.w3.org/2000/svg"><defs><symbol id="icon-pencil" viewBox="0 0 32 32"><path d="M27 0a5 5 0 0 1 4 8l-2 2-7-7 2-2c.836-.628 1.874-1 3-1zM2 23l-2 9 9-2 18.5-18.5-7-7L2 23zm20.362-11.638-14 14-1.724-1.724 14-14 1.724 1.724z"/></symbol><symbol id="icon-folder-plus" viewBox="0 0 32 32"><path d="m18 8-4-4H0v26h32V8H18zm4 14h-4v4h-4v-4h-4v-4h4v-4h4v4h4v4z"/></symbol><symbol id="icon-trash-box" viewBox="0 0 32 32"><path d="M6 32h20l2-22H4zM20 4V0h-8v4H2v6l2-2h24l2 2V4H20zm-2 0h-4V2h4v2z"/></symbol></defs></svg>